# xmcd
#
# Track frame offsets:
#	150
#	10757
#	30840
#	47497
#	71360
#	94062
#	114682
#	136777
#	170077
#	195452
#	210115
#	236477
#	245410
#	256850
#	285590
#
# Disc length: 4316 seconds
#
# Revision: 5
# Processed by: cddbd v1.5.2PL0 Copyright (c) Steve Scherf et al.
# Submitted via: EasyCDDAExtractor 12.0.1.1
#
DISCID=b910da0f
DTITLE=Lucero - Un Lucero En La Mexico - Pop
DYEAR=2001
DGENRE=Latin
TTITLE0=Introduccion
TTITLE1=Historias De Amores
TTITLE2=Tacticas De Guerra
TTITLE3=Veleta
TTITLE4=Una Vez Mas
TTITLE5=Quiero
TTITLE6=Siempre Contigo
TTITLE7=Medley (Amor Secreto, Fuego Y Ternura, Tu Desden, Corazon A La Deriva,
TTITLE7=Tanto)
TTITLE8=Sobrevivire
TTITLE9=Ya No
TTITLE10=Medley (Caso Perdido, Siempre Te Seguire, Millones Mejor Que Tu, Todo
TTITLE10=El Amor Del Mundo)
TTITLE11=Toda La Noche
TTITLE12=Piel De Angel
TTITLE13=Cuentame
TTITLE14=Vete Con Ella
EXTD=
EXTT0=
EXTT1=
EXTT2=
EXTT3=
EXTT4=
EXTT5=
EXTT6=
EXTT7=
EXTT8=
EXTT9=
EXTT10=
EXTT11=
EXTT12=
EXTT13=
EXTT14=
PLAYORDER=
